# xmcd
#
# Track frame offsets:
#	150
#	28428
#	36172
#	53865
#	65181
#	102092
#	118278
#	131708
#	150598
#	159361
#	188650
#	204345
#	232964
#	247189
#	267135
#	279854
#	284548
#	294970
#	319295
#
# Disc length: 4557 seconds
#
# Revision: 0
# Processed by: cddbd v1.5.1PL0 Copyright (c) Steve Scherf et al.
# Submitted via: audiograbber 1.83.01
#
DISCID=1e11cb13
DTITLE=iMusic | Your Soundtrack for Success - iMusic| Volume 1.2
DYEAR=2004
DGENRE=Mind Entertainment
TTITLE0=None - Pachelbel's Canon
TTITLE1=Purcell - Trumpet Concerto in D Adagio
TTITLE2=Beethoven - Piano Sonata No.14
TTITLE3=Scarlatti - Sinfonia de Concerto gross No.2
TTITLE4=Albinoni - Adagio for Strings
TTITLE5=Sammartini - Concerto in C
TTITLE6=Handel - Concerto No.10 Air Lentement
TTITLE7=Telemann - Largo Viola Concerto in G
TTITLE8=Stoelzel - Concerto in D Adagio
TTITLE9=Bach - Concerto for 2 Violins in D minor
TTITLE10=Handel - Concerto No.12 Aria Larghetto
TTITLE11=Barber - Adagio for Strings Rhapsody
TTITLE12=Handel - Concerto No.6 Larghetto
TTITLE13=Marcello - Concerto in D minor Adagio
TTITLE14=Satie - Gymnopedie No.1
TTITLE15=Handel - Concerto No.8 Adagio
TTITLE16=Corelli - Concerto No.12 Adagio
TTITLE17=Albinoni - Oboe Concerto Adagio
TTITLE18=Elgar - Cello Concerto in E minor Adagio
EXTD=
EXTT0=
EXTT1=
EXTT2=
EXTT3=
EXTT4=
EXTT5=
EXTT6=
EXTT7=
EXTT8=
EXTT9=
EXTT10=
EXTT11=
EXTT12=
EXTT13=
EXTT14=
EXTT15=
EXTT16=
EXTT17=
EXTT18=
PLAYORDER=
